<?xml version="1.0" encoding="UTF-8"?>
<svg xmlns="http://www.w3.org/2000/svg" xmlns:xlink="http://www.w3.org/1999/xlink" width="864pt" height="288pt" viewBox="0 0 864 288" version="1.1">
<defs>
<clipPath id="clip1">
  <path d="M 7.722656 4.980469 L 284.019531 4.980469 L 284.019531 281.277344 L 7.722656 281.277344 Z M 7.722656 4.980469 "/>
</clipPath>
<clipPath id="clip2">
  <path d="M 295.722656 4.980469 L 572.019531 4.980469 L 572.019531 281.277344 L 295.722656 281.277344 Z M 295.722656 4.980469 "/>
</clipPath>
<clipPath id="clip3">
  <path d="M 583.722656 4.980469 L 860.019531 4.980469 L 860.019531 281.277344 L 583.722656 281.277344 Z M 583.722656 4.980469 "/>
</clipPath>
</defs>
<g id="surface16">
<rect x="0" y="0" width="864" height="288" style="fill:rgb(100%,100%,100%);fill-opacity:1;stroke:none;"/>
<g clip-path="url(#clip1)" clip-rule="nonzero">
<path style="fill-rule:nonzero;fill:rgb(47.843137%,81.960784%,31.764706%);fill-opacity:1;stroke-width:1.066978;stroke-linecap:butt;stroke-linejoin:round;stroke:rgb(80%,80%,80%);stroke-opacity:1;stroke-miterlimit:10;" d="M 61.796875 267.765625 L 76.546875 267.765625 L 76.546875 59.207031 L 61.796875 59.207031 Z M 61.796875 267.765625 "/>
<path style="fill-rule:nonzero;fill:rgb(12.156863%,59.607843%,54.509804%);fill-opacity:1;stroke-width:1.066978;stroke-linecap:butt;stroke-linejoin:round;stroke:rgb(80%,80%,80%);stroke-opacity:1;stroke-miterlimit:10;" d="M 47.050781 267.765625 L 61.800781 267.765625 L 61.800781 117.601563 L 47.050781 117.601563 Z M 47.050781 267.765625 "/>
<path style="fill-rule:nonzero;fill:rgb(22.352941%,33.72549%,54.901961%);fill-opacity:1;stroke-width:1.066978;stroke-linecap:butt;stroke-linejoin:round;stroke:rgb(80%,80%,80%);stroke-opacity:1;stroke-miterlimit:10;" d="M 32.300781 267.765625 L 47.050781 267.765625 L 47.050781 142.628906 L 32.300781 142.628906 Z M 32.300781 267.765625 "/>
<path style="fill-rule:nonzero;fill:rgb(26.666667%,0.392157%,32.941176%);fill-opacity:1;stroke-width:1.066978;stroke-linecap:butt;stroke-linejoin:round;stroke:rgb(80%,80%,80%);stroke-opacity:1;stroke-miterlimit:10;" d="M 17.554688 267.765625 L 32.304688 267.765625 L 32.304688 184.34375 L 17.554688 184.34375 Z M 17.554688 267.765625 "/>
<path style="fill-rule:nonzero;fill:rgb(47.843137%,81.960784%,31.764706%);fill-opacity:1;stroke-width:1.066978;stroke-linecap:butt;stroke-linejoin:round;stroke:rgb(80%,80%,80%);stroke-opacity:1;stroke-miterlimit:10;" d="M 127.34375 267.765625 L 142.09375 267.765625 L 142.09375 59.207031 L 127.34375 59.207031 Z M 127.34375 267.765625 "/>
<path style="fill-rule:nonzero;fill:rgb(12.156863%,59.607843%,54.509804%);fill-opacity:1;stroke-width:1.066978;stroke-linecap:butt;stroke-linejoin:round;stroke:rgb(80%,80%,80%);stroke-opacity:1;stroke-miterlimit:10;" d="M 112.597656 267.765625 L 127.347656 267.765625 L 127.347656 100.917969 L 112.597656 100.917969 Z M 112.597656 267.765625 "/>
<path style="fill-rule:nonzero;fill:rgb(22.352941%,33.72549%,54.901961%);fill-opacity:1;stroke-width:1.066978;stroke-linecap:butt;stroke-linejoin:round;stroke:rgb(80%,80%,80%);stroke-opacity:1;stroke-miterlimit:10;" d="M 97.847656 267.765625 L 112.597656 267.765625 L 112.597656 134.289063 L 97.847656 134.289063 Z M 97.847656 267.765625 "/>
<path style="fill-rule:nonzero;fill:rgb(26.666667%,0.392157%,32.941176%);fill-opacity:1;stroke-width:1.066978;stroke-linecap:butt;stroke-linejoin:round;stroke:rgb(80%,80%,80%);stroke-opacity:1;stroke-miterlimit:10;" d="M 83.101563 267.765625 L 97.851563 267.765625 L 97.851563 142.628906 L 83.101563 142.628906 Z M 83.101563 267.765625 "/>
<path style="fill-rule:nonzero;fill:rgb(47.843137%,81.960784%,31.764706%);fill-opacity:1;stroke-width:1.066978;stroke-linecap:butt;stroke-linejoin:round;stroke:rgb(80%,80%,80%);stroke-opacity:1;stroke-miterlimit:10;" d="M 192.890625 267.765625 L 207.640625 267.765625 L 207.640625 17.496094 L 192.890625 17.496094 Z M 192.890625 267.765625 "/>
<path style="fill-rule:nonzero;fill:rgb(12.156863%,59.607843%,54.509804%);fill-opacity:1;stroke-width:1.066978;stroke-linecap:butt;stroke-linejoin:round;stroke:rgb(80%,80%,80%);stroke-opacity:1;stroke-miterlimit:10;" d="M 178.144531 267.765625 L 192.894531 267.765625 L 192.894531 100.917969 L 178.144531 100.917969 Z M 178.144531 267.765625 "/>
<path style="fill-rule:nonzero;fill:rgb(22.352941%,33.72549%,54.901961%);fill-opacity:1;stroke-width:1.066978;stroke-linecap:butt;stroke-linejoin:round;stroke:rgb(80%,80%,80%);stroke-opacity:1;stroke-miterlimit:10;" d="M 163.394531 267.765625 L 178.144531 267.765625 L 178.144531 117.601563 L 163.394531 117.601563 Z M 163.394531 267.765625 "/>
<path style="fill-rule:nonzero;fill:rgb(26.666667%,0.392157%,32.941176%);fill-opacity:1;stroke-width:1.066978;stroke-linecap:butt;stroke-linejoin:round;stroke:rgb(80%,80%,80%);stroke-opacity:1;stroke-miterlimit:10;" d="M 148.648438 267.765625 L 163.398438 267.765625 L 163.398438 80.0625 L 148.648438 80.0625 Z M 148.648438 267.765625 "/>
<path style="fill-rule:nonzero;fill:rgb(47.843137%,81.960784%,31.764706%);fill-opacity:1;stroke-width:1.066978;stroke-linecap:butt;stroke-linejoin:round;stroke:rgb(80%,80%,80%);stroke-opacity:1;stroke-miterlimit:10;" d="M 258.4375 267.765625 L 273.1875 267.765625 L 273.1875 125.945313 L 258.4375 125.945313 Z M 258.4375 267.765625 "/>
<path style="fill-rule:nonzero;fill:rgb(12.156863%,59.607843%,54.509804%);fill-opacity:1;stroke-width:1.066978;stroke-linecap:butt;stroke-linejoin:round;stroke:rgb(80%,80%,80%);stroke-opacity:1;stroke-miterlimit:10;" d="M 243.691406 267.765625 L 258.441406 267.765625 L 258.441406 67.550781 L 243.691406 67.550781 Z M 243.691406 267.765625 "/>
<path style="fill-rule:nonzero;fill:rgb(22.352941%,33.72549%,54.901961%);fill-opacity:1;stroke-width:1.066978;stroke-linecap:butt;stroke-linejoin:round;stroke:rgb(80%,80%,80%);stroke-opacity:1;stroke-miterlimit:10;" d="M 228.941406 267.765625 L 243.691406 267.765625 L 243.691406 17.496094 L 228.941406 17.496094 Z M 228.941406 267.765625 "/>
<path style="fill-rule:nonzero;fill:rgb(26.666667%,0.392157%,32.941176%);fill-opacity:1;stroke-width:1.066978;stroke-linecap:butt;stroke-linejoin:round;stroke:rgb(80%,80%,80%);stroke-opacity:1;stroke-miterlimit:10;" d="M 214.195313 267.765625 L 228.945313 267.765625 L 228.945313 25.835938 L 214.195313 25.835938 Z M 214.195313 267.765625 "/>
</g>
<g clip-path="url(#clip2)" clip-rule="nonzero">
<path style="fill-rule:nonzero;fill:rgb(26.666667%,0.392157%,32.941176%);fill-opacity:1;stroke-width:1.066978;stroke-linecap:butt;stroke-linejoin:round;stroke:rgb(80%,80%,80%);stroke-opacity:1;stroke-miterlimit:10;" d="M 349.796875 267.765625 L 364.546875 267.765625 L 364.546875 25.835938 L 349.796875 25.835938 Z M 349.796875 267.765625 "/>
<path style="fill-rule:nonzero;fill:rgb(26.666667%,0.392157%,32.941176%);fill-opacity:1;stroke-width:1.066978;stroke-linecap:butt;stroke-linejoin:round;stroke:rgb(80%,80%,80%);stroke-opacity:1;stroke-miterlimit:10;" d="M 335.050781 267.765625 L 349.800781 267.765625 L 349.800781 80.0625 L 335.050781 80.0625 Z M 335.050781 267.765625 "/>
<path style="fill-rule:nonzero;fill:rgb(26.666667%,0.392157%,32.941176%);fill-opacity:1;stroke-width:1.066978;stroke-linecap:butt;stroke-linejoin:round;stroke:rgb(80%,80%,80%);stroke-opacity:1;stroke-miterlimit:10;" d="M 320.300781 267.765625 L 335.050781 267.765625 L 335.050781 142.628906 L 320.300781 142.628906 Z M 320.300781 267.765625 "/>
<path style="fill-rule:nonzero;fill:rgb(26.666667%,0.392157%,32.941176%);fill-opacity:1;stroke-width:1.066978;stroke-linecap:butt;stroke-linejoin:round;stroke:rgb(80%,80%,80%);stroke-opacity:1;stroke-miterlimit:10;" d="M 305.554688 267.765625 L 320.304688 267.765625 L 320.304688 184.34375 L 305.554688 184.34375 Z M 305.554688 267.765625 "/>
<path style="fill-rule:nonzero;fill:rgb(22.352941%,33.72549%,54.901961%);fill-opacity:1;stroke-width:1.066978;stroke-linecap:butt;stroke-linejoin:round;stroke:rgb(80%,80%,80%);stroke-opacity:1;stroke-miterlimit:10;" d="M 415.34375 267.765625 L 430.09375 267.765625 L 430.09375 17.496094 L 415.34375 17.496094 Z M 415.34375 267.765625 "/>
<path style="fill-rule:nonzero;fill:rgb(22.352941%,33.72549%,54.901961%);fill-opacity:1;stroke-width:1.066978;stroke-linecap:butt;stroke-linejoin:round;stroke:rgb(80%,80%,80%);stroke-opacity:1;stroke-miterlimit:10;" d="M 400.597656 267.765625 L 415.347656 267.765625 L 415.347656 117.601563 L 400.597656 117.601563 Z M 400.597656 267.765625 "/>
<path style="fill-rule:nonzero;fill:rgb(22.352941%,33.72549%,54.901961%);fill-opacity:1;stroke-width:1.066978;stroke-linecap:butt;stroke-linejoin:round;stroke:rgb(80%,80%,80%);stroke-opacity:1;stroke-miterlimit:10;" d="M 385.847656 267.765625 L 400.597656 267.765625 L 400.597656 134.289063 L 385.847656 134.289063 Z M 385.847656 267.765625 "/>
<path style="fill-rule:nonzero;fill:rgb(22.352941%,33.72549%,54.901961%);fill-opacity:1;stroke-width:1.066978;stroke-linecap:butt;stroke-linejoin:round;stroke:rgb(80%,80%,80%);stroke-opacity:1;stroke-miterlimit:10;" d="M 371.101563 267.765625 L 385.851563 267.765625 L 385.851563 142.628906 L 371.101563 142.628906 Z M 371.101563 267.765625 "/>
<path style="fill-rule:nonzero;fill:rgb(12.156863%,59.607843%,54.509804%);fill-opacity:1;stroke-width:1.066978;stroke-linecap:butt;stroke-linejoin:round;stroke:rgb(80%,80%,80%);stroke-opacity:1;stroke-miterlimit:10;" d="M 480.890625 267.765625 L 495.640625 267.765625 L 495.640625 67.550781 L 480.890625 67.550781 Z M 480.890625 267.765625 "/>
<path style="fill-rule:nonzero;fill:rgb(12.156863%,59.607843%,54.509804%);fill-opacity:1;stroke-width:1.066978;stroke-linecap:butt;stroke-linejoin:round;stroke:rgb(80%,80%,80%);stroke-opacity:1;stroke-miterlimit:10;" d="M 466.144531 267.765625 L 480.894531 267.765625 L 480.894531 100.917969 L 466.144531 100.917969 Z M 466.144531 267.765625 "/>
<path style="fill-rule:nonzero;fill:rgb(12.156863%,59.607843%,54.509804%);fill-opacity:1;stroke-width:1.066978;stroke-linecap:butt;stroke-linejoin:round;stroke:rgb(80%,80%,80%);stroke-opacity:1;stroke-miterlimit:10;" d="M 451.394531 267.765625 L 466.144531 267.765625 L 466.144531 100.917969 L 451.394531 100.917969 Z M 451.394531 267.765625 "/>
<path style="fill-rule:nonzero;fill:rgb(12.156863%,59.607843%,54.509804%);fill-opacity:1;stroke-width:1.066978;stroke-linecap:butt;stroke-linejoin:round;stroke:rgb(80%,80%,80%);stroke-opacity:1;stroke-miterlimit:10;" d="M 436.648438 267.765625 L 451.398438 267.765625 L 451.398438 117.601563 L 436.648438 117.601563 Z M 436.648438 267.765625 "/>
<path style="fill-rule:nonzero;fill:rgb(47.843137%,81.960784%,31.764706%);fill-opacity:1;stroke-width:1.066978;stroke-linecap:butt;stroke-linejoin:round;stroke:rgb(80%,80%,80%);stroke-opacity:1;stroke-miterlimit:10;" d="M 546.4375 267.765625 L 561.1875 267.765625 L 561.1875 125.945313 L 546.4375 125.945313 Z M 546.4375 267.765625 "/>
<path style="fill-rule:nonzero;fill:rgb(47.843137%,81.960784%,31.764706%);fill-opacity:1;stroke-width:1.066978;stroke-linecap:butt;stroke-linejoin:round;stroke:rgb(80%,80%,80%);stroke-opacity:1;stroke-miterlimit:10;" d="M 531.691406 267.765625 L 546.441406 267.765625 L 546.441406 17.496094 L 531.691406 17.496094 Z M 531.691406 267.765625 "/>
<path style="fill-rule:nonzero;fill:rgb(47.843137%,81.960784%,31.764706%);fill-opacity:1;stroke-width:1.066978;stroke-linecap:butt;stroke-linejoin:round;stroke:rgb(80%,80%,80%);stroke-opacity:1;stroke-miterlimit:10;" d="M 516.941406 267.765625 L 531.691406 267.765625 L 531.691406 59.207031 L 516.941406 59.207031 Z M 516.941406 267.765625 "/>
<path style="fill-rule:nonzero;fill:rgb(47.843137%,81.960784%,31.764706%);fill-opacity:1;stroke-width:1.066978;stroke-linecap:butt;stroke-linejoin:round;stroke:rgb(80%,80%,80%);stroke-opacity:1;stroke-miterlimit:10;" d="M 502.195313 267.765625 L 516.945313 267.765625 L 516.945313 59.207031 L 502.195313 59.207031 Z M 502.195313 267.765625 "/>
</g>
<g clip-path="url(#clip3)" clip-rule="nonzero">
<path style="fill:none;stroke-width:4.267913;stroke-linecap:butt;stroke-linejoin:round;stroke:rgb(26.666667%,0.392157%,32.941176%);stroke-opacity:1;stroke-miterlimit:1;" d="M 623.050781 267.765625 L 688.597656 205.199219 L 754.144531 111.347656 L 819.691406 30.007813 "/>
<path style="fill:none;stroke-width:4.267913;stroke-linecap:butt;stroke-linejoin:round;stroke:rgb(22.352941%,33.72549%,54.901961%);stroke-opacity:0.501961;stroke-miterlimit:1;" d="M 623.050781 205.199219 L 688.597656 192.683594 L 754.144531 167.65625 L 819.691406 17.496094 "/>
<path style="fill:none;stroke-width:4.267913;stroke-linecap:butt;stroke-linejoin:round;stroke:rgb(12.156863%,59.607843%,54.509804%);stroke-opacity:0.501961;stroke-miterlimit:1;" d="M 623.050781 167.65625 L 688.597656 142.628906 L 754.144531 142.628906 L 819.691406 92.574219 "/>
<path style="fill:none;stroke-width:4.267913;stroke-linecap:butt;stroke-linejoin:round;stroke:rgb(47.843137%,81.960784%,31.764706%);stroke-opacity:0.501961;stroke-miterlimit:1;" d="M 623.050781 80.0625 L 688.597656 80.0625 L 754.144531 17.496094 L 819.691406 180.171875 "/>
</g>
</g>
</svg>
